<mxfile host="Electron" modified="2024-01-24T20:57:43.971Z" agent="Mozilla/5.0 (Windows NT 10.0; Win64; x64) AppleWebKit/537.36 (KHTML, like Gecko) draw.io/22.1.21 Chrome/120.0.6099.109 Electron/28.1.0 Safari/537.36" etag="ODM8mfJwCq26KmfWK8AP" version="22.1.21" type="device">
  <diagram name="Page-1" id="4pt5Puts_h1FVy4kua7U">
    <mxGraphModel dx="2160" dy="1290" grid="1" gridSize="10" guides="1" tooltips="1" connect="1" arrows="1" fold="1" page="1" pageScale="1" pageWidth="827" pageHeight="1169" math="0" shadow="0">
      <root>
        <mxCell id="0" />
        <mxCell id="1" parent="0" />
        <mxCell id="SSXNYBxEraaeRP1RCvyI-6" style="edgeStyle=orthogonalEdgeStyle;rounded=0;orthogonalLoop=1;jettySize=auto;html=1;exitX=0.5;exitY=1;exitDx=0;exitDy=0;entryX=0.5;entryY=0;entryDx=0;entryDy=0;" edge="1" parent="1" source="SSXNYBxEraaeRP1RCvyI-1" target="SSXNYBxEraaeRP1RCvyI-3">
          <mxGeometry relative="1" as="geometry" />
        </mxCell>
        <mxCell id="SSXNYBxEraaeRP1RCvyI-1" value="&lt;font style=&quot;font-size: 20px;&quot;&gt;start&lt;/font&gt;" style="rounded=1;whiteSpace=wrap;html=1;fontSize=12;glass=0;strokeWidth=1;shadow=0;arcSize=50;fillColor=#dae8fc;strokeColor=#6c8ebf;" vertex="1" parent="1">
          <mxGeometry x="354" y="364" width="120" height="40" as="geometry" />
        </mxCell>
        <mxCell id="SSXNYBxEraaeRP1RCvyI-2" value="&lt;font style=&quot;font-size: 21px;&quot;&gt;end&lt;/font&gt;" style="rounded=1;whiteSpace=wrap;html=1;arcSize=50;fillColor=#dae8fc;strokeColor=#6c8ebf;" vertex="1" parent="1">
          <mxGeometry x="354" y="764" width="120" height="40" as="geometry" />
        </mxCell>
        <mxCell id="SSXNYBxEraaeRP1RCvyI-7" style="edgeStyle=orthogonalEdgeStyle;rounded=0;orthogonalLoop=1;jettySize=auto;html=1;exitX=0.5;exitY=1;exitDx=0;exitDy=0;entryX=0.5;entryY=0;entryDx=0;entryDy=0;" edge="1" parent="1" source="SSXNYBxEraaeRP1RCvyI-3" target="SSXNYBxEraaeRP1RCvyI-4">
          <mxGeometry relative="1" as="geometry" />
        </mxCell>
        <mxCell id="SSXNYBxEraaeRP1RCvyI-3" value="&lt;font style=&quot;font-size: 20px;&quot;&gt;read FirstName&lt;br&gt;read LastName&lt;br&gt;&lt;/font&gt;" style="shape=parallelogram;perimeter=parallelogramPerimeter;whiteSpace=wrap;html=1;fixedSize=1;fillColor=#d5e8d4;strokeColor=#82b366;" vertex="1" parent="1">
          <mxGeometry x="309" y="444" width="210" height="70" as="geometry" />
        </mxCell>
        <mxCell id="SSXNYBxEraaeRP1RCvyI-8" style="edgeStyle=orthogonalEdgeStyle;rounded=0;orthogonalLoop=1;jettySize=auto;html=1;exitX=0.5;exitY=1;exitDx=0;exitDy=0;entryX=0.5;entryY=0;entryDx=0;entryDy=0;" edge="1" parent="1" source="SSXNYBxEraaeRP1RCvyI-4" target="SSXNYBxEraaeRP1RCvyI-5">
          <mxGeometry relative="1" as="geometry" />
        </mxCell>
        <mxCell id="SSXNYBxEraaeRP1RCvyI-4" value="&lt;h3&gt;&lt;font style=&quot;font-size: 20px;&quot;&gt;FullName= FirstName +&quot; &quot;+ LastName&lt;/font&gt;&lt;/h3&gt;" style="rounded=0;whiteSpace=wrap;html=1;fillColor=#e1d5e7;strokeColor=#9673a6;" vertex="1" parent="1">
          <mxGeometry x="220" y="554" width="388" height="60" as="geometry" />
        </mxCell>
        <mxCell id="SSXNYBxEraaeRP1RCvyI-9" style="edgeStyle=orthogonalEdgeStyle;rounded=0;orthogonalLoop=1;jettySize=auto;html=1;exitX=0.5;exitY=1;exitDx=0;exitDy=0;entryX=0.5;entryY=0;entryDx=0;entryDy=0;" edge="1" parent="1" source="SSXNYBxEraaeRP1RCvyI-5" target="SSXNYBxEraaeRP1RCvyI-2">
          <mxGeometry relative="1" as="geometry" />
        </mxCell>
        <mxCell id="SSXNYBxEraaeRP1RCvyI-5" value="&lt;font style=&quot;font-size: 20px;&quot;&gt;print FullName&lt;/font&gt;" style="shape=parallelogram;perimeter=parallelogramPerimeter;whiteSpace=wrap;html=1;fixedSize=1;fillColor=#d5e8d4;strokeColor=#82b366;" vertex="1" parent="1">
          <mxGeometry x="309" y="664" width="210" height="60" as="geometry" />
        </mxCell>
      </root>
    </mxGraphModel>
  </diagram>
</mxfile>
